<svg version="1.1" xmlns="http://www.w3.org/2000/svg" xmlns:xlink="http://www.w3.org/1999/xlink" width="516" height="390" viewBox="0,0,516,390"><g transform="translate(18.39998,11.39998)"><g data-paper-data="{&quot;isPaintingLayer&quot;:true}" fill-rule="nonzero" stroke-linecap="butt" stroke-linejoin="miter" stroke-miterlimit="10" stroke-dasharray="" stroke-dashoffset="0" style="mix-blend-mode: normal"><path d="M-17.39998,377.60002v-388h514v388z" fill="#000000" stroke="#000000" stroke-width="2"/><path d="M309.58455,172.80303c0,-5.10863 4.14136,-9.25 9.25,-9.25c5.10863,0 9.25,4.14137 9.25,9.25c0,5.10863 -4.14137,9.25 -9.25,9.25c-5.10864,0 -9.25,-4.14137 -9.25,-9.25z" fill="#ffffff" stroke="none" stroke-width="0.5"/><path d="M208.39748,105.67451c0,-5.10863 4.14137,-9.25 9.25,-9.25c5.10863,0 9.25,4.14137 9.25,9.25c0,5.10863 -4.14137,9.25 -9.25,9.25c-5.10863,0 -9.25,-4.14137 -9.25,-9.25z" fill="#ffffff" stroke="none" stroke-width="0.5"/><path d="M-17.39998,377.60002v-388h514v388z" fill="#000000" stroke="#000000" stroke-width="2"/><path d="M177.45242,183.31354c0,-5.10863 4.14137,-9.25 9.25,-9.25c5.10863,0 9.25,4.14137 9.25,9.25c0,5.10863 -4.14137,9.25 -9.25,9.25c-5.10863,0 -9.25,-4.14137 -9.25,-9.25z" fill="#ffffff" stroke="none" stroke-width="0.5"/><path d="M208.39748,105.6745c0,-5.10863 4.14136,-9.25 9.25,-9.25c5.10863,0 9.25,4.14137 9.25,9.25c0,5.10864 -4.14137,9.25 -9.25,9.25c-5.10863,0 -9.25,-4.14137 -9.25,-9.25z" fill="#ffffff" stroke="none" stroke-width="0.5"/><path d="M-17.39998,377.60002v-388h514v388z" fill="#000000" stroke="#000000" stroke-width="2"/><path d="M208.98395,112.74296c0,-5.10863 4.14137,-9.25 9.25,-9.25c5.10863,0 9.25,4.14137 9.25,9.25c0,5.10863 -4.14137,9.25 -9.25,9.25c-5.10863,0 -9.25,-4.14137 -9.25,-9.25z" fill="#ffffff" stroke="none" stroke-width="0.5"/><path d="M295.48456,170.23906c0,-5.10863 4.14136,-9.25 9.25,-9.25c5.10863,0 9.25,4.14137 9.25,9.25c0,5.10863 -4.14137,9.25 -9.25,9.25c-5.10863,0 -9.25,-4.14137 -9.25,-9.25z" fill="#ffffff" stroke="none" stroke-width="0.5"/><path d="M-17.39998,377.60003v-388h514v388z" fill="#000000" stroke="#000000" stroke-width="2"/><path d="M309.58456,172.80304c0,-5.10863 4.14136,-9.25 9.25,-9.25c5.10863,0 9.25,4.14137 9.25,9.25c0,5.10863 -4.14137,9.25 -9.25,9.25c-5.10864,0 -9.25,-4.14137 -9.25,-9.25z" fill="#ffffff" stroke="none" stroke-width="0.5"/><path d="M208.39749,105.67452c0,-5.10863 4.14137,-9.25 9.25,-9.25c5.10863,0 9.25,4.14137 9.25,9.25c0,5.10863 -4.14137,9.25 -9.25,9.25c-5.10863,0 -9.25,-4.14137 -9.25,-9.25z" fill="#ffffff" stroke="none" stroke-width="0.5"/><path d="M-17.39998,377.60003v-388h514v388z" fill="#000000" stroke="#000000" stroke-width="2"/><path d="M177.45243,183.31355c0,-5.10863 4.14137,-9.25 9.25,-9.25c5.10863,0 9.25,4.14137 9.25,9.25c0,5.10863 -4.14137,9.25 -9.25,9.25c-5.10863,0 -9.25,-4.14137 -9.25,-9.25z" fill="#ffffff" stroke="none" stroke-width="0.5"/><path d="M208.39749,105.67451c0,-5.10863 4.14136,-9.25 9.25,-9.25c5.10863,0 9.25,4.14137 9.25,9.25c0,5.10864 -4.14137,9.25 -9.25,9.25c-5.10863,0 -9.25,-4.14137 -9.25,-9.25z" fill="#ffffff" stroke="none" stroke-width="0.5"/><path d="M-17.39998,377.60003v-388h514v388z" fill="#000000" stroke="#000000" stroke-width="2"/><path d="M184.95994,141.27149c0,-5.10863 4.14137,-9.25 9.25,-9.25c5.10863,0 9.25,4.14137 9.25,9.25c0,5.10863 -4.14137,9.25 -9.25,9.25c-5.10863,0 -9.25,-4.14137 -9.25,-9.25z" fill="#ffffff" stroke="none" stroke-width="0.5"/><path d="M154.34343,210.77961c0,-5.10863 4.14136,-9.25 9.25,-9.25c5.10863,0 9.25,4.14137 9.25,9.25c0,5.10863 -4.14137,9.25 -9.25,9.25c-5.10863,0 -9.25,-4.14137 -9.25,-9.25z" fill="#ffffff" stroke="none" stroke-width="0.5"/><path d="M-17.39998,377.60003v-388h514v388z" fill="#000000" stroke="#000000" stroke-width="2"/><path d="M177.45243,183.31354c0,-5.10863 4.14137,-9.25 9.25,-9.25c5.10863,0 9.25,4.14137 9.25,9.25c0,5.10863 -4.14137,9.25 -9.25,9.25c-5.10863,0 -9.25,-4.14137 -9.25,-9.25z" fill="#ffffff" stroke="none" stroke-width="0.5"/><path d="M208.39748,105.6745c0,-5.10863 4.14136,-9.25 9.25,-9.25c5.10863,0 9.25,4.14137 9.25,9.25c0,5.10864 -4.14137,9.25 -9.25,9.25c-5.10863,0 -9.25,-4.14137 -9.25,-9.25z" fill="#ffffff" stroke="none" stroke-width="0.5"/><path d="M-17.39998,377.60003v-388h514v388z" fill="#000000" stroke="#000000" stroke-width="2"/><path d="M187.96294,120.25047c0,-5.10863 4.14137,-9.25 9.25,-9.25c5.10863,0 9.25,4.14137 9.25,9.25c0,5.10863 -4.14137,9.25 -9.25,9.25c-5.10863,0 -9.25,-4.14137 -9.25,-9.25z" fill="#ffffff" stroke="none" stroke-width="0.5"/><path d="M236.92599,101.16999c0,-5.10863 4.14136,-9.25 9.25,-9.25c5.10863,0 9.25,4.14137 9.25,9.25c0,5.10863 -4.14137,9.25 -9.25,9.25c-5.10863,0 -9.25,-4.14137 -9.25,-9.25z" fill="#ffffff" stroke="none" stroke-width="0.5"/></g></g></svg>