<svg version="1.1" xmlns="http://www.w3.org/2000/svg" xmlns:xlink="http://www.w3.org/1999/xlink" width="516.00002" height="390.00003" viewBox="0,0,516.00002,390.00003"><g transform="translate(18.4,11.4)"><g data-paper-data="{&quot;isPaintingLayer&quot;:true}" fill-rule="nonzero" stroke-linecap="butt" stroke-linejoin="miter" stroke-miterlimit="10" stroke-dasharray="" stroke-dashoffset="0" style="mix-blend-mode: normal"><path d="M-17.39997,377.60003v-388h514v388z" fill="#000000" stroke="#000000" stroke-width="2"/><path d="M309.58457,172.80304c0,-5.10863 4.14136,-9.25 9.25,-9.25c5.10863,0 9.25,4.14137 9.25,9.25c0,5.10863 -4.14137,9.25 -9.25,9.25c-5.10864,0 -9.25,-4.14137 -9.25,-9.25z" fill="#ffffff" stroke="none" stroke-width="0.5"/><path d="M208.39749,105.67451c0,-5.10863 4.14137,-9.25 9.25,-9.25c5.10863,0 9.25,4.14137 9.25,9.25c0,5.10863 -4.14137,9.25 -9.25,9.25c-5.10863,0 -9.25,-4.14137 -9.25,-9.25z" fill="#ffffff" stroke="none" stroke-width="0.5"/><path d="M-17.39997,377.60003v-388h514v388z" fill="#000000" stroke="#000000" stroke-width="2"/><path d="M177.45244,183.31354c0,-5.10863 4.14137,-9.25 9.25,-9.25c5.10863,0 9.25,4.14137 9.25,9.25c0,5.10863 -4.14137,9.25 -9.25,9.25c-5.10863,0 -9.25,-4.14137 -9.25,-9.25z" fill="#ffffff" stroke="none" stroke-width="0.5"/><path d="M208.39749,105.6745c0,-5.10863 4.14136,-9.25 9.25,-9.25c5.10863,0 9.25,4.14137 9.25,9.25c0,5.10864 -4.14137,9.25 -9.25,9.25c-5.10863,0 -9.25,-4.14137 -9.25,-9.25z" fill="#ffffff" stroke="none" stroke-width="0.5"/><path d="M-17.39997,377.60003v-388h514v388z" fill="#000000" stroke="#000000" stroke-width="2"/><path d="M208.98397,112.74296c0,-5.10863 4.14137,-9.25 9.25,-9.25c5.10863,0 9.25,4.14137 9.25,9.25c0,5.10863 -4.14137,9.25 -9.25,9.25c-5.10863,0 -9.25,-4.14137 -9.25,-9.25z" fill="#ffffff" stroke="none" stroke-width="0.5"/><path d="M295.48457,170.23907c0,-5.10863 4.14136,-9.25 9.25,-9.25c5.10863,0 9.25,4.14137 9.25,9.25c0,5.10863 -4.14137,9.25 -9.25,9.25c-5.10863,0 -9.25,-4.14137 -9.25,-9.25z" fill="#ffffff" stroke="none" stroke-width="0.5"/><path d="M-17.39997,377.60003v-388h514v388z" fill="#000000" stroke="#000000" stroke-width="2"/><path d="M309.58457,172.80305c0,-5.10863 4.14136,-9.25 9.25,-9.25c5.10863,0 9.25,4.14137 9.25,9.25c0,5.10863 -4.14137,9.25 -9.25,9.25c-5.10864,0 -9.25,-4.14137 -9.25,-9.25z" fill="#ffffff" stroke="none" stroke-width="0.5"/><path d="M208.3975,105.67452c0,-5.10863 4.14137,-9.25 9.25,-9.25c5.10863,0 9.25,4.14137 9.25,9.25c0,5.10863 -4.14137,9.25 -9.25,9.25c-5.10863,0 -9.25,-4.14137 -9.25,-9.25z" fill="#ffffff" stroke="none" stroke-width="0.5"/><path d="M-17.39997,377.60003v-388h514v388z" fill="#000000" stroke="#000000" stroke-width="2"/><path d="M177.45244,183.31355c0,-5.10863 4.14137,-9.25 9.25,-9.25c5.10863,0 9.25,4.14137 9.25,9.25c0,5.10863 -4.14137,9.25 -9.25,9.25c-5.10863,0 -9.25,-4.14137 -9.25,-9.25z" fill="#ffffff" stroke="none" stroke-width="0.5"/><path d="M208.3975,105.67451c0,-5.10863 4.14136,-9.25 9.25,-9.25c5.10863,0 9.25,4.14137 9.25,9.25c0,5.10864 -4.14137,9.25 -9.25,9.25c-5.10863,0 -9.25,-4.14137 -9.25,-9.25z" fill="#ffffff" stroke="none" stroke-width="0.5"/><path d="M-17.39997,377.60003v-388h514v388z" fill="#000000" stroke="#000000" stroke-width="2"/><path d="M184.95995,141.27149c0,-5.10863 4.14137,-9.25 9.25,-9.25c5.10863,0 9.25,4.14137 9.25,9.25c0,5.10863 -4.14137,9.25 -9.25,9.25c-5.10863,0 -9.25,-4.14137 -9.25,-9.25z" fill="#ffffff" stroke="none" stroke-width="0.5"/><path d="M154.34344,210.77961c0,-5.10863 4.14136,-9.25 9.25,-9.25c5.10863,0 9.25,4.14137 9.25,9.25c0,5.10863 -4.14137,9.25 -9.25,9.25c-5.10863,0 -9.25,-4.14137 -9.25,-9.25z" fill="#ffffff" stroke="none" stroke-width="0.5"/><path d="M-17.39997,377.60003v-388h514v388z" fill="#000000" stroke="#000000" stroke-width="2"/><path d="M177.45244,183.31354c0,-5.10863 4.14137,-9.25 9.25,-9.25c5.10863,0 9.25,4.14137 9.25,9.25c0,5.10863 -4.14137,9.25 -9.25,9.25c-5.10863,0 -9.25,-4.14137 -9.25,-9.25z" fill="#ffffff" stroke="none" stroke-width="0.5"/><path d="M208.39749,105.6745c0,-5.10863 4.14136,-9.25 9.25,-9.25c5.10863,0 9.25,4.14137 9.25,9.25c0,5.10864 -4.14137,9.25 -9.25,9.25c-5.10863,0 -9.25,-4.14137 -9.25,-9.25z" fill="#ffffff" stroke="none" stroke-width="0.5"/><path d="M-17.39997,377.60003v-388h514v388z" fill="#000000" stroke="#000000" stroke-width="2"/><path d="M-17.39999,377.60001v-388h514v388z" fill="#000000" stroke="#000000" stroke-width="2"/><path d="M227.05,111.8c0,-5.10863 4.14137,-9.25 9.25,-9.25c5.10863,0 9.25,4.14137 9.25,9.25c0,5.10863 -4.14137,9.25 -9.25,9.25c-5.10863,0 -9.25,-4.14137 -9.25,-9.25z" fill="#ffffff" stroke="none" stroke-width="0.5"/></g></g></svg>