<svg version="1.1" xmlns="http://www.w3.org/2000/svg" xmlns:xlink="http://www.w3.org/1999/xlink" width="516" height="390" viewBox="0,0,516,390"><g transform="translate(18.4,11.4)"><g data-paper-data="{&quot;isPaintingLayer&quot;:true}" fill-rule="nonzero" stroke-linecap="butt" stroke-linejoin="miter" stroke-miterlimit="10" stroke-dasharray="" stroke-dashoffset="0" style="mix-blend-mode: normal"><path d="M-17.39999,377.60001v-388h514v388z" fill="#000000" stroke="#000000" stroke-width="2"/><path d="M275.05001,169.80001c0,-5.10863 4.14137,-9.25 9.25,-9.25c5.10863,0 9.25,4.14137 9.25,9.25c0,5.10863 -4.14137,9.25 -9.25,9.25c-5.10863,0 -9.25,-4.14137 -9.25,-9.25z" fill="#ffffff" stroke="none" stroke-width="0.5"/><path d="M260.95001,131.20001c0,-5.10863 4.14137,-9.25 9.25,-9.25c5.10863,0 9.25,4.14136 9.25,9.25c0,5.10863 -4.14137,9.25 -9.25,9.25c-5.10863,0 -9.25,-4.14137 -9.25,-9.25z" fill="#ffffff" stroke="none" stroke-width="0.5"/></g></g></svg>